<svg xmlns="http://www.w3.org/2000/svg" style="display: none;"><symbol id="alphabet" viewBox="0 0 473.935 473.935"><title>alphabet</title><circle style="fill:#D7DABA;" cx="236.967" cy="236.967" r="236.967"/><path style="fill:#357180;" d="M309.528,212.043c0,4.715-3.82,8.535-8.535,8.535H173.892c-4.715,0-8.535-3.82-8.535-8.535V84.95 c0-4.715,3.82-8.535,8.535-8.535h127.097c4.715,0,8.535,3.82,8.535,8.535v127.094H309.528z"/><path style="fill:#ECEDEA;" d="M263.381,183.325l-4.823-12.67h-41.04l-4.816,12.947c-1.886,5.051-3.495,8.46-4.823,10.223 c-1.328,1.77-3.51,2.653-6.541,2.653c-2.574,0-4.846-0.943-6.818-2.825s-2.96-4.015-2.96-6.402c0-1.377,0.228-2.799,0.688-4.273 c0.46-1.467,1.22-3.51,2.271-6.129l25.826-65.56c0.73-1.882,1.616-4.142,2.653-6.784c1.029-2.642,2.133-4.834,3.304-6.578 s2.713-3.158,4.61-4.236c1.908-1.078,4.262-1.62,7.061-1.62c2.844,0,5.224,0.543,7.124,1.62c1.908,1.078,3.442,2.47,4.617,4.165 c1.171,1.699,2.155,3.525,2.96,5.474c0.804,1.953,1.826,4.557,3.061,7.817l26.376,65.145c2.069,4.958,3.098,8.565,3.098,10.814 c0,2.342-0.973,4.486-2.93,6.44c-1.946,1.949-4.296,2.926-7.053,2.926c-1.609,0-2.99-0.284-4.135-0.861 c-1.149-0.569-2.11-1.351-2.885-2.342c-0.782-0.984-1.624-2.5-2.514-4.543C264.791,186.693,264.024,184.889,263.381,183.325z M222.887,155.303h30.17l-15.225-41.665L222.887,155.303z"/><path style="fill:#D62127;" d="M233.596,362.572c0,4.715-3.828,8.535-8.535,8.535H97.964c-4.715,0-8.535-3.82-8.535-8.535V235.478 c0-4.715,3.82-8.535,8.535-8.535h127.097c4.707,0,8.535,3.82,8.535,8.535V362.572z"/><path style="fill:#ECEDEA;" d="M165.956,348.42h-30.847c-4.456,0-7.637-0.999-9.538-2.997c-1.908-1.994-2.859-5.175-2.859-9.538 v-75.887c0-4.449,0.973-7.652,2.922-9.605c1.949-1.949,5.108-2.922,9.47-2.922h32.711c4.816,0,8.995,0.299,12.528,0.894 c3.536,0.595,6.702,1.744,9.508,3.439c2.384,1.429,4.494,3.225,6.335,5.407c1.833,2.181,3.237,4.595,4.195,7.233 c0.965,2.642,1.448,5.429,1.448,8.367c0,10.099-5.051,17.489-15.15,22.174c13.272,4.224,19.906,12.441,19.906,24.655 c0,5.646-1.456,10.728-4.34,15.252c-2.892,4.52-6.795,7.865-11.708,10.021c-3.076,1.287-6.615,2.193-10.604,2.72 C175.939,348.155,171.284,348.42,165.956,348.42z M143.165,262.823v26.103h18.731c5.1,0,9.033-0.486,11.809-1.448 c2.776-0.965,4.905-2.799,6.372-5.508c1.149-1.931,1.717-4.09,1.717-6.477c0-5.089-1.811-8.483-5.437-10.155 c-3.633-1.676-9.156-2.514-16.599-2.514H143.165z M164.444,303.586h-21.283v29.474h21.968c13.818,0,20.726-4.98,20.726-14.941 c0-5.093-1.792-8.789-5.373-11.087C176.912,304.742,171.553,303.586,164.444,303.586z"/><path style="fill:#65A844;" d="M385.457,362.572c0,4.715-3.82,8.535-8.535,8.535h-127.09c-4.715,0-8.535-3.82-8.535-8.535V235.478 c0-4.715,3.82-8.535,8.535-8.535h127.09c4.715,0,8.535,3.82,8.535,8.535V362.572z"/><path style="fill:#ECEDEA;" d="M358.205,320.712c0,3.218-0.797,6.694-2.376,10.436c-1.587,3.742-4.079,7.413-7.476,11.016 c-3.398,3.607-7.731,6.529-13.01,8.782c-5.283,2.253-11.439,3.371-18.462,3.371c-5.328,0-10.166-0.505-14.529-1.512 s-8.325-2.582-11.876-4.718c-3.566-2.133-6.832-4.947-9.822-8.438c-2.66-3.169-4.932-6.713-6.81-10.638 c-1.886-3.929-3.296-8.116-4.239-12.565c-0.935-4.453-1.411-9.182-1.411-14.189c0-8.123,1.182-15.401,3.551-21.83 c2.361-6.428,5.744-11.925,10.151-16.494c4.415-4.565,9.575-8.041,15.495-10.432c5.927-2.384,12.236-3.581,18.945-3.581 c8.172,0,15.45,1.635,21.83,4.894c6.38,3.259,11.27,7.285,14.668,12.082c3.39,4.797,5.093,9.332,5.093,13.601 c0,2.342-0.827,4.408-2.477,6.196c-1.65,1.789-3.656,2.687-5.994,2.687c-2.616,0-4.576-0.621-5.89-1.856 c-1.31-1.242-2.761-3.375-4.37-6.406c-2.668-5.007-5.796-8.745-9.399-11.225c-3.603-2.477-8.045-3.719-13.332-3.719 c-8.397,0-15.091,3.192-20.067,9.575c-4.984,6.38-7.476,15.45-7.476,27.203c0,7.85,1.104,14.38,3.304,19.588 c2.208,5.212,5.328,9.104,9.369,11.671c4.041,2.574,8.771,3.854,14.185,3.854c5.875,0,10.844-1.456,14.907-4.37 c4.064-2.915,7.132-7.199,9.194-12.842c0.868-2.664,1.949-4.834,3.237-6.511c1.287-1.673,3.353-2.511,6.196-2.511 c2.432,0,4.524,0.853,6.264,2.548C357.329,316.08,358.205,318.19,358.205,320.712z"/></symbol><symbol id="box" viewBox="0 0 508 508"><title>box</title><circle style="fill:#90DFAA;" cx="254" cy="254" r="254"/><path style="fill:#2C9984;" d="M58.4,416.1C105,472.2,175.3,508,254,508s149-35.8,195.6-91.9H58.4z"/><path style="fill:#324A5E;" d="M254,280.2L254,280.2c-1.5,0-2.8-1.2-2.8-2.8v-222c0-1.5,1.2-2.8,2.8-2.8l0,0c1.5,0,2.8,1.2,2.8,2.8 v222C256.8,279,255.5,280.2,254,280.2z"/><path style="fill:#E6E9EE;" d="M326.1,416H181.9c-0.9,0-1.7-0.8-1.7-1.7V270.2c0-0.9,0.8-1.7,1.7-1.7H326c0.9,0,1.7,0.8,1.7,1.7 v144.1C327.7,415.3,327,416,326.1,416z"/><path style="fill:#FF7058;" d="M274.6,268.5v15.6c-1.3-0.1-2.5-0.2-3.8-0.3c-2.2-0.2-4.6-0.3-6.4,1c-1.3-1.6-3.6-1.7-5.7-1.6 c-3.3,0.1-6.7,0.2-10,0.3c-0.7,0-1.3,0.1-1.9,0.2c-0.7,0.2-1.3,0.7-2.1,0.8c-2.2,0.5-4.7-1.4-6.6-0.1c-0.4,0.3-0.8,0.7-1.2,0.9 c-0.6,0.3-1.2,0.3-1.9,0.3c-0.6,0-1.1,0-1.6,0v-17.2h41.2V268.5z"/><path style="fill:#324A5E;" d="M277,312.9h-46c-3.2,0-5.9-2.6-5.9-5.9l0,0c0-3.2,2.6-5.9,5.9-5.9h46c3.2,0,5.9,2.6,5.9,5.9l0,0 C282.9,310.3,280.3,312.9,277,312.9z"/><path style="fill:#F1543F;" d="M418,214.5c-5.4-4.6-12.5-7.3-20.1-7.3c-9.9,0-18.8,4.6-24.5,11.9c-6.5-10.4-18-17.5-31.2-17.5 c-14.2,0-26.4,8-32.6,19.7c-9.1-15.8-30.6-26.8-55.6-26.8s-46.4,11-55.5,26.8c-6.2-11.7-18.5-19.7-32.6-19.7 c-13.3,0-24.8,7-31.3,17.5c-5.7-7.2-14.5-11.9-24.5-11.9c-7.6,0-14.6,2.7-20,7.2C98.7,131.5,168.8,66.9,254,66.9 C339.2,66.9,409.2,131.5,418,214.5z"/><path style="fill:#FFFFFF;" d="M373.4,218.9c-0.1,0.1-0.1,0.1-0.1,0.1c-6.5-10.4-18-17.5-31.2-17.5c-14.2,0-26.4,8-32.6,19.7 c-9.1-15.8-30.6-26.8-55.6-26.8s-46.4,11-55.5,26.8c-6.2-11.7-18.5-19.7-32.6-19.7c-13.3,0-24.8,7-31.3,17.5 c-0.1-0.1-0.1-0.1-0.1-0.1c4.8-85.1,56.5-152,119.5-152C317,66.9,368.6,133.8,373.4,218.9z"/><path style="fill:#FF7058;" d="M309.7,220.8c-0.1,0.1-0.2,0.3-0.2,0.4c-9.1-15.8-30.6-26.8-55.6-26.8s-46.4,11-55.5,26.8 c-0.1-0.2-0.2-0.3-0.3-0.4c2-86,26.2-153.9,55.8-153.9C283.5,66.9,307.7,134.9,309.7,220.8z"/></symbol><symbol id="business" viewBox="0 0 371.161 371.161"><title>business</title><circle style="fill:#F2F2F2;" cx="184.475" cy="192.699" r="178.462"/><path style="fill:#FF6D3B;" d="M300.054,204.647v-23.889l-17.546-6.001c-0.5-2.651-1.078-5.27-1.758-7.835l-46.053,12.332 c1.145,4.29,1.765,8.795,1.765,13.447c0,28.709-23.274,51.983-51.98,51.983c-4.66,0-9.172-0.62-13.465-1.772l-12.342,46.048 c2.585,0.694,5.204,1.278,7.87,1.758l5.984,17.546h23.906l5.982-17.546c5.354-0.96,10.538-2.368,15.54-4.155l13.952,12.209 l20.709-11.978l-3.596-18.156l-0.098,0.047c2.07-1.755,4.074-3.614,5.999-5.531c1.92-1.922,3.776-3.929,5.534-5.999l-0.052,0.081 l18.176,3.596l11.963-20.694l-12.197-13.952c1.792-5.002,3.183-10.191,4.16-15.54L300.054,204.647z"/><path style="fill:#FFFFFF;" d="M290.528,145.268l-11.948-20.694l-18.176,3.582l0.052,0.113c-1.758-2.087-3.614-4.094-5.534-6.009 c-1.922-1.922-3.929-3.778-5.999-5.538l0.098,0.052l3.579-18.176l-20.692-11.946l-13.952,12.192c-2.518-0.896-5.086-1.703-7.705-2.4 l-12.332,46.041c17.9,4.775,31.993,18.868,36.775,36.77l46.053-12.332c-0.697-2.617-1.509-5.186-2.405-7.705L290.528,145.268z"/><path style="fill:#FFD55C;" d="M184.482,140.719c4.65,0,9.152,0.62,13.44,1.767l12.332-46.041c-2.567-0.682-5.184-1.28-7.838-1.777 l-5.982-17.529h-23.906l-5.984,17.529c-2.666,0.497-5.285,1.093-7.87,1.777l12.342,46.043 C175.311,141.339,179.823,140.719,184.482,140.719z"/><g> <path style="fill:#3E4959;" d="M132.497,192.704c0-24.054,16.34-44.278,38.521-50.213l-12.342-46.043 c-2.599,0.706-5.169,1.502-7.687,2.4l-13.95-12.192l-20.692,11.946l3.594,18.176l0.101-0.052c-2.09,1.76-4.094,3.616-6.016,5.538 c-1.92,1.915-3.776,3.924-5.531,6.009l0.064-0.113l-18.193-3.582l-11.948,20.714l12.197,13.932c-1.792,5.019-3.2,10.188-4.16,15.54 l-17.546,6.001v23.889l17.546,5.999c0.962,5.351,2.37,10.538,4.16,15.54l-12.197,13.952l11.963,20.694l18.176-3.577l-0.064-0.101 c1.755,2.07,3.611,4.074,5.531,5.999c1.922,1.918,3.929,3.776,6.001,5.531l-3.678,18.11l20.709,11.978l13.932-12.209 c2.518,0.911,5.088,1.703,7.687,2.4l12.342-46.048C148.834,236.982,132.497,216.756,132.497,192.704z"/> <path style="fill:#3E4959;" d="M365.147,79.729V69.711l-7.358-2.516c-0.209-1.11-0.453-2.208-0.738-3.286 c-0.29-1.095-0.633-2.174-1.004-3.232l5.105-5.851l-5.009-8.677l-7.623,1.499l0.02,0.052c-0.736-0.874-1.511-1.713-2.316-2.521 c-0.807-0.807-1.647-1.585-2.516-2.319l0.044,0.022l1.499-7.623l-8.677-5.009l-5.851,5.113c-1.058-0.374-2.134-0.716-3.23-1.009 c-1.078-0.283-2.178-0.534-3.289-0.741l-2.511-7.353H311.67l-2.508,7.353c-1.12,0.207-2.215,0.458-3.301,0.741 c-1.09,0.298-2.169,0.635-3.227,1.009l-5.849-5.113l-8.677,5.009l1.506,7.623l0.042-0.022c-0.874,0.736-1.716,1.511-2.523,2.319 c-0.802,0.807-1.583,1.647-2.316,2.521l0.027-0.052l-7.628-1.499l-5.009,8.687l5.113,5.841c-0.751,2.107-1.342,4.273-1.745,6.516 l-7.355,2.516v10.018l7.355,2.513c0.404,2.242,0.994,4.423,1.745,6.518l-5.113,5.849l5.014,8.677l7.623-1.499l-0.027-0.044 c0.736,0.871,1.514,1.711,2.316,2.516c0.807,0.805,1.649,1.585,2.516,2.319l-1.541,7.596l8.684,5.024l5.841-5.12 c1.058,0.377,2.134,0.714,3.227,1.004c1.083,0.293,2.181,0.534,3.301,0.738l2.508,7.355h10.023l2.511-7.355 c2.242-0.404,4.421-0.992,6.516-1.743l5.851,5.12l8.682-5.024l-1.504-7.616l-0.044,0.02c0.871-0.736,1.708-1.514,2.516-2.319 c0.805-0.805,1.583-1.644,2.316-2.516l-0.02,0.042l7.623,1.502l5.017-8.677l-5.113-5.849c0.748-2.097,1.332-4.276,1.743-6.518 L365.147,79.729z M316.682,96.517c-1.954,0-3.845-0.258-5.647-0.743c-9.3-2.484-16.153-10.969-16.153-21.056 s6.85-18.57,16.153-21.058c1.802-0.48,3.692-0.743,5.647-0.743c1.95,0,3.84,0.261,5.637,0.743 c7.508,2.001,13.415,7.911,15.422,15.417c0.48,1.799,0.741,3.69,0.741,5.642C338.479,86.757,328.719,96.517,316.682,96.517z"/> </g><path style="fill:#FF6D3B;" d="M266.759,31.175v-5.839l-4.29-1.47c-0.121-0.647-0.261-1.285-0.428-1.915 c-0.17-0.638-0.369-1.265-0.586-1.883l2.976-3.412l-2.922-5.058l-4.443,0.874l0.01,0.03c-0.428-0.51-0.879-0.999-1.351-1.472 c-0.468-0.47-0.96-0.923-1.467-1.351l0.025,0.012l0.874-4.446l-5.058-2.919l-3.412,2.981c-0.615-0.222-1.246-0.418-1.883-0.588 c-0.63-0.165-1.27-0.313-1.918-0.433L241.423,0h-5.844l-1.462,4.286c-0.652,0.121-1.29,0.266-1.922,0.433 c-0.638,0.172-1.265,0.367-1.881,0.588l-3.412-2.981l-5.058,2.919l0.876,4.446l0.025-0.012c-0.51,0.428-0.999,0.879-1.472,1.351 c-0.468,0.47-0.923,0.962-1.351,1.472l0.017-0.03l-4.448-0.874l-2.922,5.063l2.981,3.407c-0.438,1.228-0.78,2.494-1.017,3.798 l-4.288,1.47v5.839l4.288,1.467c0.236,1.305,0.578,2.577,1.017,3.801l-2.981,3.409l2.924,5.058l4.446-0.874l-0.017-0.025 c0.428,0.51,0.881,0.997,1.351,1.467c0.47,0.47,0.962,0.923,1.47,1.354l-0.898,4.428l5.063,2.927l3.407-2.983 c0.615,0.219,1.243,0.416,1.881,0.583c0.633,0.17,1.273,0.313,1.922,0.431l1.462,4.288h5.844l1.462-4.288 c1.31-0.236,2.58-0.576,3.801-1.014l3.412,2.983l5.063-2.927l-0.879-4.441l-0.025,0.012c0.507-0.431,0.997-0.881,1.467-1.354 c0.47-0.468,0.923-0.958,1.351-1.467l-0.01,0.025l4.443,0.874l2.924-5.058l-2.981-3.409c0.436-1.223,0.775-2.496,1.014-3.801 L266.759,31.175z M238.503,40.965c-1.137,0-2.24-0.153-3.291-0.433c-5.42-1.45-9.415-6.395-9.415-12.273s3.995-10.826,9.415-12.276 c1.051-0.281,2.154-0.433,3.291-0.433c1.137,0,2.238,0.153,3.289,0.433c4.374,1.169,7.82,4.61,8.987,8.985 c0.281,1.051,0.433,2.151,0.433,3.291C251.212,35.274,245.524,40.965,238.503,40.965z"/></symbol><symbol id="coin" viewBox="0 0 291.764 291.764"><title>coin</title><path style="fill:#EFC75E;" d="M145.882,0c80.573,0,145.882,65.319,145.882,145.882s-65.31,145.882-145.882,145.882 S0,226.446,0,145.882S65.31,0,145.882,0z"/><path style="fill:#CC9933;" d="M145.882,27.353c-65.465,0-118.529,53.065-118.529,118.529s53.065,118.529,118.529,118.529 s118.529-53.065,118.529-118.529S211.347,27.353,145.882,27.353z M145.882,246.176c-55.39,0-100.294-44.904-100.294-100.294 S90.493,45.588,145.882,45.588s100.294,44.904,100.294,100.294S201.281,246.176,145.882,246.176z M158.009,138.269 c-5.452-2.289-25.493-5.452-25.493-14.214c0-6.464,7.495-8.334,11.99-8.334c4.094,0,8.999,1.295,11.589,3.875 c1.641,1.577,2.316,2.726,2.854,4.313c0.684,1.869,1.094,3.875,3.684,3.875h13.357c3.136,0,3.957-0.574,3.957-4.021 c0-14.789-11.589-23.122-24.809-25.994V86.28c0-2.58-0.821-4.167-3.957-4.167h-10.64c-3.136,0-3.957,1.577-3.957,4.167v11.051 c-14.178,2.726-26.031,11.634-26.031,27.718c0,18.235,12.683,23.979,26.441,28.566c11.589,3.884,23.724,4.021,23.724,12.063 s-5.99,9.765-13.357,9.765c-5.051,0-10.631-1.304-13.366-4.741c-1.769-2.152-2.453-4.021-2.58-5.89 c-0.274-3.592-1.769-4.021-4.914-4.021H113.28c-3.136,0-3.957,0.729-3.957,4.021c0,16.366,13.093,26.286,27.262,29.441v11.206 c0,2.58,0.821,4.167,3.957,4.167h10.64c3.136,0,3.957-1.586,3.957-4.167v-10.905c16.084-2.453,27.125-12.209,27.125-29.441 C182.28,145.591,167.829,141.424,158.009,138.269z"/></symbol><symbol id="desert" viewBox="0 0 512 512"><title>desert</title><path style="fill:#FFEFC1;" d="M256.005,0C397.384,0,512,114.616,512,256.005C512,397.384,397.384,512,256.005,512 C114.616,512,0,397.384,0,256.005C0,114.616,114.616,0,256.005,0z"/><path style="fill:#FFF1C7;" d="M73.991,261.582v4.493c0.029,11.419,0.889,13.929,2.491,20.737l0.117-0.02 c13.714,80.35,80.125,142.718,162.41,150.268l0.684,0.068c1.084,0.088,2.178,0.176,3.272,0.254l1.446,0.088 c0.928,0.068,1.856,0.117,2.794,0.166c0.596,0.029,1.201,0.039,1.807,0.068c0.84,0.02,1.661,0.059,2.501,0.088 c0.967,0.02,1.934,0.02,2.901,0.029c0.469,0.01,0.947,0.02,1.416,0.02h0.215c1.358,0,2.725-0.029,4.083-0.049l0.645-0.01 c1.289-0.049,2.569-0.098,3.849-0.156l1.084-0.049c1.133-0.068,2.276-0.137,3.409-0.215l1.602-0.127 c0.742-0.068,1.475-0.127,2.208-0.205c81.561-7.599,147.494-69.059,161.843-148.481c1.748-6.818,1.768-8.947,2.647-19.751l0,0h0.205 l0,0l0,0c0.029-0.694,0.039-1.367,0.049-2.041v-0.059v-0.049v-0.039v-0.107v-0.049v-0.049l0,0v-0.049v-0.049v-0.147v-0.059v-0.049 v-0.039v-0.059h0.01v-0.049v-0.049v-0.049v-0.049v-0.059v-0.039v-0.049c1.143-13.558-0.625-35.838-5.226-53.069l-0.244-0.928 c-19.809-78.973-91.261-137.463-176.378-137.463c-87.178,0-160.016,61.361-177.726,143.245l0,0c-0.02,0.068-0.039,0.127-0.059,0.186 l-0.293,1.114l-0.176,0.674l-0.322,1.192c-2.247,9.279-2.96,20.356-3.175,30.026c-0.049,1.807-0.088,3.604-0.088,5.411v0.342 C73.991,258.193,73.991,259.941,73.991,261.582z"/><path style="fill:#FFDF81;" d="M10.706,265.099c0,0,36.346-36.112,62.455-39.648s78.338,33.836,100.189,35.858 c21.851,2.022,84.199-63.637,108.706-52.522c24.517,11.106,81.005,42.93,112.437,48.487c31.443,5.548,78.875-55.559,101.253-62.631 c2.794-0.879,5.568-1.631,8.293-2.247c5.196,20.337,7.961,41.65,7.961,63.608c0,8.225-0.4,16.351-1.162,24.38 c-108.54,20.678-373.834,59.887-431.279,36.483C21.401,293.171,10.706,265.099,10.706,265.099z"/><path style="fill:#FFB54C;" d="M0.303,268.478c14.466-11.038,50.314-23.042,74.822-6.369c21.724,14.769,25.816,16.068,39.902,12.6 c65.757-42.344,99.661-28.483,130.723,9.572c37.87,33.338,112.076,15.306,130.264,31.462c18.188,16.166-4.542,21.216-4.542,21.216 L22.798,361.761C9.787,333.093,1.895,301.611,0.303,268.478z"/><path style="fill:#FF9675;" d="M511.922,249.46c-42.207,4.054-81.395-20.346-150.561,14.769 c-71.989,36.551-161.14,81.454-146.967,78.797c13.929-2.628,187.659-13.528,288.122-17.768c6.173-22.036,9.485-45.254,9.485-69.254 C512,253.817,511.971,251.639,511.922,249.46z"/><path style="fill:#FFDF81;" d="M8.898,323.081h494.203C473.632,431.923,374.176,512,256.005,512 C137.824,512,38.368,431.923,8.898,323.081z"/><path style="fill:#4D4D4D;" d="M442.785,431.044L289.87,342.763l-8.859-5.118l-25.24-14.564l-32.81,18.94l-10.872,6.271 l-143.03,82.587C115.778,480.792,182.238,512,256.005,512C329.684,512,396.076,480.87,442.785,431.044z"/><g> <path style="fill:#FFFFFF;" d="M419.274,453.178L255.77,323.081l173.252,121.59C425.848,447.581,422.595,450.424,419.274,453.178z M93.546,453.852c-3.682-3.018-7.267-6.154-10.764-9.367l170.986-120.066l2.002-1.338L93.546,453.852z"/> <path style="fill:#FFC928;" d="M239.781,490.286l6.564-68.717h17.885l5.89,68.717H239.781z M247.986,404.466l3.292-34.461h8.518 l2.96,34.461H247.986z M251.961,362.923l1.514-15.834h4.356l1.358,15.834H251.961z M253.807,343.613l0.977-10.198h1.875 l0.879,10.198H253.807z M254.989,331.276l0.781-8.195l0.703,8.195H254.989z"/> </g><path style="fill:#FF9B7C;" d="M254.891,105.19c26.158,0,47.364,21.206,47.364,47.364c0,26.148-21.206,47.354-47.364,47.354 c-26.148,0-47.354-21.206-47.354-47.354C207.537,126.396,228.743,105.19,254.891,105.19z"/><g> <path style="fill:#FECBBC;" d="M151.899,138.166c4.757,0,9.24,0.928,13.216,2.579c4.298-3.468,10.178-5.616,16.674-5.616 c11.243,0,20.669,6.427,23.199,15.062c5.617,1.397,10.129,4.903,12.18,9.397c0.674-0.068,1.367-0.098,2.061-0.098 c10.383,0,18.813,6.955,18.813,15.531c0,8.576-8.43,15.531-18.813,15.531c-3.243,0-6.29-0.684-8.947-1.866 c-2.286,6.457-9.504,11.165-18.061,11.165c-5.226,0-9.953-1.758-13.372-4.601c-3.409,2.842-8.137,4.601-13.372,4.601 c-4.962,0-9.485-1.592-12.854-4.19c-3.429,3.106-8.381,5.05-13.88,5.05c-5.148,0-9.817-1.7-13.206-4.464 c-1.553,0.283-3.175,0.43-4.825,0.43c-12.386,0-22.417-8.283-22.417-18.49c0-10.217,10.032-18.5,22.417-18.5 c0.674,0,1.348,0.029,2.002,0.078C124.305,147.611,136.769,138.166,151.899,138.166z"/> <path style="fill:#FECBBC;" d="M387.929,188.363c1.817,0,3.536,0.352,5.05,0.987c1.641-1.328,3.897-2.149,6.378-2.149 c4.298,0,7.902,2.452,8.869,5.763c2.149,0.527,3.868,1.866,4.659,3.585c0.254-0.02,0.518-0.039,0.781-0.039 c3.976,0,7.199,2.657,7.199,5.939c0,3.282-3.223,5.939-7.199,5.939c-1.241,0-2.403-0.254-3.419-0.713 c-0.869,2.471-3.634,4.269-6.906,4.269c-2.002,0-3.809-0.674-5.109-1.758c-1.309,1.084-3.116,1.758-5.109,1.758 c-1.905,0-3.634-0.606-4.913-1.602c-1.319,1.192-3.214,1.934-5.314,1.934c-1.973,0-3.751-0.654-5.05-1.709 c-0.596,0.107-1.211,0.166-1.846,0.166c-4.728,0-8.566-3.165-8.566-7.072c0-3.907,3.839-7.072,8.566-7.072 c0.264,0,0.518,0.01,0.772,0.029C377.38,191.977,382.147,188.363,387.929,188.363z"/> <path style="fill:#FECBBC;" d="M297.225,40.771c2.93,0,5.695,0.576,8.146,1.592c2.647-2.139,6.271-3.458,10.276-3.458 c6.925,0,12.737,3.956,14.29,9.279c3.458,0.86,6.242,3.018,7.511,5.783c0.41-0.039,0.83-0.059,1.26-0.059 c6.398,0,11.594,4.288,11.594,9.572s-5.196,9.563-11.594,9.563c-1.993,0-3.868-0.41-5.509-1.143 c-1.407,3.976-5.861,6.877-11.135,6.877c-3.214,0-6.124-1.084-8.234-2.833c-2.1,1.748-5.011,2.833-8.234,2.833 c-3.057,0-5.851-0.977-7.922-2.579c-2.12,1.914-5.167,3.116-8.557,3.116c-3.175,0-6.046-1.055-8.137-2.755 c-0.957,0.176-1.954,0.264-2.969,0.264c-7.638,0-13.821-5.099-13.821-11.399c0-6.29,6.183-11.389,13.821-11.389 c0.41,0,0.82,0.01,1.231,0.049C280.219,46.593,287.897,40.771,297.225,40.771z"/> <path style="fill:#FECBBC;" d="M447.308,92.97c2.315,0,4.552,0.264,6.671,0.733c13.03,15.873,24.185,33.338,33.132,52.062 c-1.543,0.4-3.194,0.615-4.894,0.615c-4.532,0-8.625-1.524-11.575-3.985c-2.96,2.461-7.052,3.985-11.575,3.985 c-4.308,0-8.224-1.387-11.135-3.624c-2.969,2.686-7.257,4.366-12.014,4.366c-4.464,0-8.498-1.465-11.438-3.868 c-1.348,0.244-2.745,0.381-4.181,0.381c-10.715,0-19.409-7.17-19.409-16.019c0-8.84,8.693-16.009,19.409-16.009 c0.586,0,1.172,0.029,1.739,0.068C423.416,101.156,434.199,92.97,447.308,92.97z"/> </g></symbol><symbol id="file" viewBox="0 0 508 508"><title>file</title><circle style="fill:#84DBFF;" cx="254" cy="254" r="254"/><path style="fill:#FFFFFF;" d="M121.6,103.6v301.2c0,6.8,5.6,12.4,12.4,12.4h183.6v-56c0-6.8,5.6-12.4,12.4-12.4h56V103.6 c0-6.8-5.6-12.4-12.4-12.4H134C127.2,90.8,121.6,96.4,121.6,103.6z"/><path style="fill:#E6E9EE;" d="M317.6,417.2l68.8-68.8h-56c-6.8,0-12.4,5.6-12.4,12.4v56.4H317.6z"/><rect x="152" y="132" style="fill:#FFD05B;" width="37.2" height="37.2"/><rect x="152" y="195.2" style="fill:#FF7058;" width="37.2" height="37.2"/><rect x="152" y="258.4" style="fill:#4CDBC4;" width="37.2" height="37.2"/><g> <rect x="206" y="132" style="fill:#E6E9EE;" width="150" height="10.4"/> <rect x="206" y="158.8" style="fill:#E6E9EE;" width="94.4" height="10.4"/> <rect x="206" y="195.2" style="fill:#E6E9EE;" width="150" height="10.4"/> <rect x="206" y="222" style="fill:#E6E9EE;" width="94.4" height="10.4"/> <rect x="206" y="258.4" style="fill:#E6E9EE;" width="150" height="10.4"/> <rect x="206" y="285.2" style="fill:#E6E9EE;" width="94.4" height="10.4"/> </g></symbol><symbol id="github-logo" viewBox="0 0 96 96"><title>github-logo</title><path d="M48.07,47.746c-0.022,0-0.047-0.001-0.07-0.002c-0.024,0.001-0.049,0.002-0.071,0.002 c-5.957,0-11.206-1.508-14.308,1.34c-1.859,1.709-2.642,3.768-2.642,5.985c0,9.261,7.42,10.398,16.949,10.398h0.142 c9.529,0,16.949-1.138,16.949-10.398c0-2.218-0.783-4.276-2.642-5.985C59.275,46.238,54.027,47.746,48.07,47.746z M39.968,60.401 c-1.813,0-3.283-2.036-3.283-4.547s1.47-4.546,3.283-4.546s3.285,2.035,3.285,4.546S41.781,60.401,39.968,60.401z M56.031,60.401 c-1.814,0-3.285-2.036-3.285-4.547s1.471-4.546,3.285-4.546c1.812,0,3.283,2.035,3.283,4.546S57.844,60.401,56.031,60.401z M48,0 C21.489,0,0,21.49,0,48s21.489,48,48,48c26.509,0,48-21.49,48-48S74.509,0,48,0z M52.378,67.701c-0.86,0-2.57,0.002-4.378,0.004 c-1.809-0.002-3.52-0.004-4.379-0.004c-3.803,0-18.863-0.291-18.863-18.445c0-4.177,1.432-7.233,3.775-9.778 c-0.374-0.923-0.393-6.165,1.602-11.183c0,0,4.576,0.502,11.5,5.253c1.451-0.401,3.908-0.601,6.365-0.601 c2.455,0,4.912,0.199,6.365,0.601c6.923-4.751,11.498-5.253,11.498-5.253c1.995,5.018,1.977,10.26,1.603,11.183 c2.344,2.545,3.776,5.602,3.776,9.778C71.242,67.41,56.181,67.701,52.378,67.701z" fill="#00ACF7"/></symbol><symbol id="graphic-design" viewBox="0 0 512 512"><title>graphic-design</title><circle style="fill:#FFD55C;" cx="256" cy="256" r="256"/><polygon style="fill:#E6E5E5;" points="300.019,411.278 211.948,411.278 219.949,366.381 291.999,366.381 "/><polygon style="fill:#D9D8D7;" points="300.019,411.278 291.999,366.381 219.949,366.381 277.567,411.278 "/><g> <path style="fill:#FFFFFF;" d="M323.6,417.865H188.366v-2.458c0-1.057,0.4-2.111,1.212-2.923c0.806-0.806,1.86-1.206,2.917-1.206 h126.966c1.064,0,2.121,0.4,2.927,1.206c0.806,0.813,1.212,1.863,1.212,2.923L323.6,417.865L323.6,417.865z"/> <path style="fill:#FFFFFF;" d="M414.555,337.349v21.322c0,4.245-3.485,7.71-7.733,7.71H105.158c-4.222,0-7.713-3.465-7.713-7.71 v-21.322H414.555z"/> </g><path style="fill:#242D3C;" d="M414.555,337.349V134.891c0-4.231-3.482-7.723-7.736-7.723h-301.67c-4.225,0-7.697,3.492-7.697,7.723 v202.458H414.555z"/><rect x="113.466" y="143.195" style="fill:#FFFFFF;" width="285.035" height="178.136"/><rect x="120.35" y="150.066" style="fill:#F2F2F2;" width="219.4" height="164.362"/><g> <rect x="120.35" y="150.066" style="fill:#D9D8D7;" width="271.261" height="11.479"/> <rect x="120.35" y="170.334" style="fill:#D9D8D7;" width="28.137" height="144.103"/> </g><rect x="124.941" y="174.922" style="fill:#FFFFFF;" width="18.954" height="78.419"/><rect x="120.35" y="161.554" style="fill:#242D3C;" width="28.137" height="8.78"/><rect x="171.801" y="161.554" style="fill:#CCCBCA;" width="167.943" height="8.78"/><rect x="339.737" y="170.334" style="fill:#D9D8D7;" width="51.877" height="61.922"/><rect x="344.328" y="174.922" style="fill:#FFFFFF;" width="42.694" height="32.137"/><rect x="339.737" y="241.04" style="fill:#D9D8D7;" width="51.877" height="73.398"/><rect x="344.328" y="245.628" style="fill:#FFFFFF;" width="42.694" height="52.845"/><g> <rect x="339.737" y="161.554" style="fill:#242D3C;" width="51.877" height="8.78"/> <rect x="339.737" y="232.25" style="fill:#242D3C;" width="51.877" height="8.78"/> </g><g> <rect x="348.292" y="249.592" style="fill:#D9D8D7;" width="34.803" height="2.768"/> <rect x="348.292" y="255.604" style="fill:#D9D8D7;" width="34.803" height="2.768"/> <rect x="348.292" y="178.87" style="fill:#D9D8D7;" width="34.803" height="2.775"/> <rect x="348.292" y="184.891" style="fill:#D9D8D7;" width="34.803" height="2.775"/> <rect x="348.292" y="190.917" style="fill:#D9D8D7;" width="34.803" height="2.775"/> </g><rect x="329.034" y="170.334" style="fill:#CCCBCA;" width="10.709" height="144.103"/><rect x="155.384" y="177.218" style="fill:#FFFFFF;" width="166.78" height="130.335"/><rect x="301.551" y="286.951" style="fill:#FF6D3B;" width="13.018" height="13.018"/><rect x="282.327" y="286.951" style="fill:#242D3C;" width="13.018" height="13.018"/><rect x="263.069" y="286.951" style="fill:#21D8DE;" width="13.015" height="13.018"/><rect x="131.257" y="266.042" style="fill:#242D3C;" width="12.638" height="12.638"/><rect x="124.941" y="259.733" style="fill:#FF6D3B;" width="12.632" height="12.632"/><g> <rect x="130.302" y="180.29" style="fill:#D9D8D7;" width="8.228" height="8.225"/> <rect x="130.302" y="193.876" style="fill:#D9D8D7;" width="8.228" height="8.225"/> <rect x="130.302" y="207.466" style="fill:#D9D8D7;" width="8.228" height="8.225"/> </g><polygon style="fill:#FF6D3B;" points="179.051,266.947 209.497,214.214 239.95,266.947 "/><circle style="fill:#242D3C;" cx="272.087" cy="240.581" r="26.37"/><rect x="228.748" y="197.232" style="fill:#21D8DE;" width="43.338" height="43.338"/><path style="fill:#FFFFFF;" d="M272.097,214.214c-14.561,0-26.37,11.806-26.37,26.366h26.37V214.214z"/></symbol><symbol id="keyboard" viewBox="0 0 509.287 509.287"><title>keyboard</title><circle style="fill:#EE4A68;" cx="254.644" cy="254.644" r="254.644"/><path style="fill:#FFFFFF;" d="M352.636,102.4H156.652c-19.327,0-34.924-15.597-34.924-34.925V37.298 c-5.086,3.052-10.172,6.442-14.919,9.833v20.344c0.339,27.465,22.718,49.844,49.844,49.844h195.645 c19.327,0,34.925,15.597,34.925,34.924v22.718h14.919v-22.718C402.14,124.44,379.762,102.4,352.636,102.4z"/><path style="fill:#F1F3F7;" d="M472.668,166.824H36.62c-6.103,0-10.85,4.408-10.85,9.833v169.536c0,5.425,5.086,9.833,10.85,9.833 h436.048c6.103,0,10.85-4.408,10.85-9.833V176.657C483.857,171.232,478.771,166.824,472.668,166.824z"/><g> <path style="fill:#DDDEE6;" d="M77.987,194.289H53.913c-1.695,0-3.052,1.356-3.052,3.052v24.074c0,1.695,1.356,3.052,3.052,3.052 h24.074c1.695,0,3.052-1.356,3.052-3.052V197.34C81.038,195.645,79.682,194.289,77.987,194.289z"/> <path style="fill:#DDDEE6;" d="M131.899,194.289h-24.074c-1.695,0-3.052,1.356-3.052,3.052v24.074c0,1.695,1.356,3.052,3.052,3.052 h24.074c1.695,0,3.052-1.356,3.052-3.052V197.34C134.951,195.645,133.595,194.289,131.899,194.289z"/> <path style="fill:#DDDEE6;" d="M185.812,194.289h-24.074c-1.695,0-3.052,1.356-3.052,3.052v24.074c0,1.695,1.356,3.052,3.052,3.052 h24.074c1.695,0,3.052-1.356,3.052-3.052V197.34C188.864,195.645,187.507,194.289,185.812,194.289z"/> <path style="fill:#DDDEE6;" d="M239.724,194.289H215.65c-1.695,0-3.052,1.356-3.052,3.052v24.074c0,1.695,1.356,3.052,3.052,3.052 h24.074c1.695,0,3.052-1.356,3.052-3.052V197.34C242.776,195.645,241.42,194.289,239.724,194.289z"/> <path style="fill:#DDDEE6;" d="M293.637,194.289h-24.074c-1.695,0-3.052,1.356-3.052,3.052v24.074c0,1.695,1.356,3.052,3.052,3.052 h24.074c1.695,0,3.052-1.356,3.052-3.052V197.34C296.689,195.645,295.332,194.289,293.637,194.289z"/> <path style="fill:#DDDEE6;" d="M347.55,194.289h-24.074c-1.695,0-3.052,1.356-3.052,3.052v24.074c0,1.695,1.356,3.052,3.052,3.052 h24.074c1.695,0,3.052-1.356,3.052-3.052V197.34C350.601,195.645,349.245,194.289,347.55,194.289z"/> <path style="fill:#DDDEE6;" d="M401.462,194.289h-24.074c-1.695,0-3.052,1.356-3.052,3.052v24.074c0,1.695,1.356,3.052,3.052,3.052 h24.074c1.695,0,3.052-1.356,3.052-3.052V197.34C404.514,195.645,403.158,194.289,401.462,194.289z"/> <path style="fill:#DDDEE6;" d="M455.375,194.289h-24.074c-1.695,0-3.052,1.356-3.052,3.052v24.074c0,1.695,1.356,3.052,3.052,3.052 h24.074c1.695,0,3.052-1.356,3.052-3.052V197.34C458.427,195.645,457.07,194.289,455.375,194.289z"/> <path style="fill:#DDDEE6;" d="M77.987,298.045H53.913c-1.695,0-3.052,1.356-3.052,3.052v24.074c0,1.695,1.356,3.052,3.052,3.052 h24.074c1.695,0,3.052-1.356,3.052-3.052v-24.074C81.038,299.401,79.682,298.045,77.987,298.045z"/> <path style="fill:#DDDEE6;" d="M131.899,298.045h-24.074c-1.695,0-3.052,1.356-3.052,3.052v24.074c0,1.695,1.356,3.052,3.052,3.052 h24.074c1.695,0,3.052-1.356,3.052-3.052v-24.074C134.951,299.401,133.595,298.045,131.899,298.045z"/> <path style="fill:#DDDEE6;" d="M347.55,298.045H161.738c-1.695,0-3.052,1.356-3.052,3.052v24.074c0,1.695,1.356,3.052,3.052,3.052 H347.55c1.695,0,3.052-1.356,3.052-3.052v-24.074C350.601,299.401,349.245,298.045,347.55,298.045z"/> <path style="fill:#DDDEE6;" d="M401.462,298.045h-24.074c-1.695,0-3.052,1.356-3.052,3.052v24.074c0,1.695,1.356,3.052,3.052,3.052 h24.074c1.695,0,3.052-1.356,3.052-3.052v-24.074C404.514,299.401,403.158,298.045,401.462,298.045z"/> <path style="fill:#DDDEE6;" d="M455.375,298.045h-24.074c-1.695,0-3.052,1.356-3.052,3.052v24.074c0,1.695,1.356,3.052,3.052,3.052 h24.074c1.695,0,3.052-1.356,3.052-3.052v-24.074C458.427,299.401,457.07,298.045,455.375,298.045z"/> <path style="fill:#DDDEE6;" d="M158.686,244.472h-24.074c-1.695,0-3.052,1.356-3.052,3.052v24.074c0,1.695,1.356,3.052,3.052,3.052 h24.074c1.695,0,3.052-1.356,3.052-3.052v-24.074C162.077,245.828,160.721,244.472,158.686,244.472z"/> <path style="fill:#DDDEE6;" d="M212.938,244.472h-24.413c-1.695,0-3.052,1.356-3.052,3.052v24.074c0,1.695,1.356,3.052,3.052,3.052 h24.074c1.695,0,3.052-1.356,3.052-3.052v-24.074C215.989,245.828,214.633,244.472,212.938,244.472z"/> <path style="fill:#DDDEE6;" d="M266.85,244.472h-24.074c-1.695,0-3.052,1.356-3.052,3.052v24.074c0,1.695,1.356,3.052,3.052,3.052 h24.074c1.695,0,3.052-1.356,3.052-3.052v-24.074C269.902,245.828,268.546,244.472,266.85,244.472z"/> <path style="fill:#DDDEE6;" d="M320.763,244.472h-24.074c-1.695,0-3.052,1.356-3.052,3.052v24.074c0,1.695,1.356,3.052,3.052,3.052 h24.074c1.695,0,3.052-1.356,3.052-3.052v-24.074C323.815,245.828,322.458,244.472,320.763,244.472z"/> <path style="fill:#DDDEE6;" d="M374.676,244.472h-24.074c-1.695,0-3.052,1.356-3.052,3.052v24.074c0,1.695,1.356,3.052,3.052,3.052 h24.074c1.695,0,3.052-1.356,3.052-3.052v-24.074C377.727,245.828,376.371,244.472,374.676,244.472z"/> <path style="fill:#DDDEE6;" d="M455.375,244.472h-55.947c-1.695,0-3.052,1.356-3.052,3.052v24.074c0,1.695,1.356,3.052,3.052,3.052 h55.947c1.695,0,3.052-1.356,3.052-3.052v-24.074C458.427,245.828,457.07,244.472,455.375,244.472z"/> <path style="fill:#DDDEE6;" d="M109.521,244.472H53.913c-1.695,0-3.052,1.356-3.052,3.052v24.074c0,1.695,1.356,3.052,3.052,3.052 h55.947c1.695,0,3.052-1.356,3.052-3.052v-24.074C112.911,245.828,111.555,244.472,109.521,244.472z"/> </g></symbol><symbol id="ladybug" viewBox="0 0 508 508"><title>ladybug</title><circle style="fill:#84DBFF;" cx="254" cy="254" r="254"/><g> <path style="fill:#2B3B4E;" d="M356.4,248.8c4.8,0,10-0.4,15.2-0.8c5.2-0.4,10-1.2,15.2-2c4.8-1.2,10-2.4,14.8-4 c1.2-0.4,2.4-0.8,3.6-1.6c1.2-0.4,2.4-1.2,3.6-1.6c1.2-0.8,2.4-1.2,3.2-2l3.2-2l1.2-0.8l0.4,1.2c0.4,0.8,0.8,1.6,1.2,2.4 c0.4,0.8,0.8,1.2,1.6,2c1.2,1.2,2.4,2.4,4,2.8c2.8,1.6,6.8,1.6,10,0.4c-3.2,1.6-6.8,2-10.4,0.8c-1.6-0.8-3.2-1.6-4.8-2.8 c-0.8-0.8-1.2-1.2-2-2c-0.4-0.8-1.2-1.6-1.6-2l2,0.4l-3.2,2.8c-0.8,0.8-2,1.6-3.2,2.4c-1.2,0.8-2.4,1.6-3.2,2 c-1.2,0.8-2.4,1.6-3.6,2c-4.8,2.4-9.6,4.4-14.8,6c-5.2,1.6-10.4,3.2-15.6,4c-5.2,1.2-10.4,2-16,2.8L356.4,248.8z"/> <path style="fill:#2B3B4E;" d="M352,307.6c4.4,2,9.2,3.6,14,5.2s9.6,2.8,14.8,4c2.4,0.4,4.8,0.8,7.6,1.2c2.4,0.4,4.8,0.4,7.6,0.8 c1.2,0,2.4,0,3.6,0s2.4,0,3.6-0.4c1.2,0,2.4,0,3.6-0.4l3.6-0.8l1.6-0.4v1.2c0,0.8,0.4,1.6,0.4,2.4s0.4,1.6,0.8,2.4 c0.8,1.6,1.6,3.2,2.8,4.4c2.4,2.4,5.6,4.4,9.2,4.4c-3.6,0.4-7.2-0.8-10-3.2c-1.2-1.2-2.4-2.8-3.6-4.4c-0.4-0.8-0.8-1.6-1.2-2.8 c-0.4-0.8-0.4-1.6-0.8-2.8l1.6,0.8l-3.6,1.2c-1.2,0.4-2.4,0.8-4,0.8c-1.2,0.4-2.8,0.4-4,0.8c-1.2,0-2.8,0.4-4,0.4 c-2.8,0.4-5.2,0.4-8,0.4s-5.2,0-8-0.4c-5.2-0.4-10.4-1.2-15.6-2.4c-5.2-1.2-10.4-2-15.6-3.6L352,307.6z"/> <path style="fill:#2B3B4E;" d="M339.6,374c3.6,3.6,7.6,6.8,11.6,10s8.4,6.4,12.8,9.2c4.4,2.8,8.8,5.2,13.6,7.6 c2.4,1.2,4.8,2,7.2,2.8c1.2,0.4,2.4,0.8,3.6,0.8l3.6,0.8l1.6,0.4v1.2c-0.4,2-0.4,3.6-0.4,5.2s0.8,3.6,1.2,5.2c1.6,3.2,4,6,7.6,7.6 c-3.6-0.8-6.8-3.6-8.4-6.8c-0.8-1.6-1.6-3.6-2-5.2c-0.4-0.8-0.4-2-0.4-2.8s0-2,0-2.8l1.2,1.2h-4c-1.2,0-2.8-0.4-4-0.4 c-2.8-0.4-5.2-1.2-8-2c-5.2-1.6-10.4-3.6-15.2-6c-4.8-2.4-9.6-5.2-14-8c-4.8-2.8-9.2-6-13.6-9.2L339.6,374z"/> <path style="fill:#2B3B4E;" d="M151.2,258.4c-5.6-0.4-10.8-1.6-16-2.8c-5.2-1.2-10.4-2.4-15.6-4s-10-3.6-14.8-6 c-1.2-0.4-2.4-1.2-3.6-2s-2.4-1.2-3.2-2c-1.2-0.8-2.4-1.6-3.2-2.4l-3.2-2.8l2-0.4c-0.4,0.8-1.2,1.6-1.6,2c-0.8,0.8-1.2,1.6-2,2 c-1.2,1.2-2.8,2-4.8,2.8c-3.6,1.2-7.2,0.8-10.4-0.8c3.2,1.2,6.8,1.2,10-0.4c1.6-0.8,2.8-1.6,4-2.8c0.4-0.8,1.2-1.2,1.6-2 s0.8-1.6,1.2-2.4l0.4-1.2l1.2,0.8l3.2,2c1.2,0.8,2.4,1.2,3.2,2c1.2,0.8,2.4,1.2,3.6,1.6c1.2,0.4,2.4,1.2,3.6,1.6 c4.8,2,9.6,3.2,14.8,4c4.8,1.2,10,1.6,15.2,2s10.4,0.8,15.2,0.8L151.2,258.4z"/> <path style="fill:#2B3B4E;" d="M159.2,316.8c-5.2,1.6-10.4,2.8-15.6,3.6c-5.2,0.8-10.4,2-15.6,2.4c-2.8,0.4-5.2,0.4-8,0.4 s-5.2,0-8-0.4c-1.2,0-2.8-0.4-4-0.4s-2.8-0.4-4-0.8s-2.8-0.4-4-0.8l-3.6-1.2l1.6-0.8c-0.4,0.8-0.4,1.6-0.8,2.8 c-0.4,0.8-0.8,1.6-1.2,2.8c-0.8,1.6-2,3.2-3.6,4.4c-2.8,2.4-6.4,4-10,3.2c3.6,0,6.8-1.6,9.2-4.4c1.2-1.2,2-2.8,2.8-4.4 c0.4-0.8,0.4-1.6,0.8-2.4c0-0.8,0.4-1.6,0.4-2.4v-1.2l1.6,0.4l3.6,0.8c1.2,0.4,2.4,0.4,3.6,0.4s2.4,0.4,3.6,0.4s2.4,0,3.6,0 c2.4,0,5.2-0.4,7.6-0.8s4.8-0.8,7.6-1.2c4.8-0.8,10-2.4,14.8-4s9.6-3.2,14-5.2L159.2,316.8z"/> <path style="fill:#2B3B4E;" d="M174.8,381.6c-4.4,3.2-8.8,6.4-13.6,9.2c-4.8,2.8-9.2,5.6-14,8s-10,4.4-15.2,6c-2.4,0.8-5.2,1.6-8,2 c-1.2,0-2.8,0.4-4,0.4h-4l1.2-1.2c0,0.8,0,2,0,2.8c0,1.2-0.4,2-0.4,2.8c-0.4,2-1.2,3.6-2,5.2c-2,3.2-5.2,6-8.4,6.8 c3.6-1.2,6-4.4,7.6-7.6c0.8-1.6,1.2-3.2,1.2-5.2c0-1.6,0-3.6-0.4-5.2v-1.2l1.6-0.4l3.6-0.8c1.2-0.4,2.4-0.8,3.6-0.8 c2.4-0.8,4.8-1.6,7.2-2.8c4.8-2,9.2-4.8,13.6-7.6c4.4-2.8,8.4-6,12.8-9.2c4-3.2,8-6.8,11.6-10L174.8,381.6z"/> <ellipse style="fill:#2B3B4E;" cx="254" cy="158" rx="69.2" ry="43.6"/> </g><g> <ellipse style="fill:#E6E9EE;" cx="288.8" cy="129.6" rx="10.4" ry="11.2"/> <ellipse style="fill:#E6E9EE;" cx="219.2" cy="129.6" rx="10.4" ry="11.2"/> </g><path style="fill:#F1543F;" d="M375.2,298.4c0,76-54.4,138-121.2,138s-121.2-61.6-121.2-138c0-29.6,8-57.2,22-79.6 c22-35.2,58-58.4,99.2-58.4s77.2,23.2,99.2,58.4C367.2,241.6,375.2,268.8,375.2,298.4z"/><path style="fill:#FF7058;" d="M375.2,298.4c0,74.8-52.4,136-118,138V222.8h-6.8V436c-65.2-2-117.6-62.8-117.6-137.6 c0-29.6,8-57.2,22-79.6c22-35.2,58-58.4,99.2-58.4s77.2,23.2,99.2,58.4C367.2,241.2,375.2,268.4,375.2,298.4z"/><path style="fill:#324A5E;" d="M353.2,219.2c-21.2,15.6-57.6,26-99.2,26s-78-10.4-99.2-25.6c22-35.2,58-58.4,99.2-58.4 S331.2,183.6,353.2,219.2z"/><g> <circle style="fill:#FFFFFF;" cx="334" cy="270" r="15.6"/> <circle style="fill:#FFFFFF;" cx="334" cy="343.2" r="15.6"/> <circle style="fill:#FFFFFF;" cx="288.8" cy="314" r="15.6"/> <circle style="fill:#FFFFFF;" cx="288.8" cy="387.2" r="15.6"/> <circle style="fill:#FFFFFF;" cx="174" cy="270" r="15.6"/> <circle style="fill:#FFFFFF;" cx="174" cy="343.2" r="15.6"/> <circle style="fill:#FFFFFF;" cx="219.2" cy="314" r="15.6"/> <circle style="fill:#FFFFFF;" cx="219.2" cy="387.2" r="15.6"/> </g><g> <path style="fill:#2B3B4E;" d="M300.4,71.6c0,0,0,1.2,0,3.2c-0.4,2-0.4,5.2-1.2,8.4c-0.4,1.6-1.2,3.6-1.6,5.6c-0.8,2-1.6,4-2.4,6 c-2,4-4.8,8-7.6,12c-1.6,2-3.2,3.6-4.8,5.2c-1.6,1.6-3.2,3.2-5.2,4.8c-3.6,2.8-6.8,5.2-10,7.2c-2.8,2-5.6,3.2-7.6,4 s-2.8,1.2-2.8,1.2s0.8-0.8,2.4-2s4-2.8,6.8-5.2c1.2-1.2,2.8-2.4,4.4-3.6s2.8-2.8,4.4-4.4s3.2-3.2,4.4-4.8c1.6-1.6,2.8-3.6,4.4-5.2 c1.2-2,2.8-3.6,4-5.6s2.4-3.6,3.6-5.6c2-3.6,4-7.2,5.2-10.4c1.2-3.2,2.4-6,2.8-8C300.4,72.8,300.4,71.6,300.4,71.6z"/> <path style="fill:#2B3B4E;" d="M207.6,71.6c0,0,0.4,1.2,0.8,3.2c0.4,2,1.6,4.8,2.8,8s3.2,6.8,5.2,10.4c0.8,2,2.4,3.6,3.6,5.6 c1.2,2,2.8,3.6,4,5.6c1.6,1.6,2.8,3.6,4.4,5.2c1.6,1.6,3.2,3.2,4.4,4.8c1.6,1.6,3.2,2.8,4.4,4.4c1.6,1.2,2.8,2.4,4.4,3.6 c2.8,2.4,5.2,4,6.8,5.2s2.4,2,2.4,2s-1.2-0.4-2.8-1.2c-1.6-1.2-4.8-2-7.6-4c-3.2-2-6.4-4.4-10-7.2c-1.6-1.6-3.2-3.2-5.2-4.8 c-1.6-1.6-3.2-3.6-4.8-5.2c-2.8-4-5.6-8-7.6-12c-1.2-2-2-4-2.4-6c-0.8-2-1.2-4-1.6-5.6c-0.8-3.6-1.2-6.4-1.2-8.4 C207.2,72.8,207.6,71.6,207.6,71.6z"/> </g></symbol><symbol id="light-bulb" viewBox="0 0 128 128"><title>light-bulb</title><circle style="fill:#FF8E6E;" cx="64" cy="64" r="64"/><g> <path style="fill:#F9FAF5;" d="M63.977,26.368c-9.491,0-23.201,7.382-23.201,22.146s10.546,13.71,12.655,39.02 c2.109,1.055,4.218,1.389,10.546,1.389c6.327,0,8.437-0.334,10.546-1.389c2.109-25.31,12.655-24.256,12.655-39.02 C87.177,33.75,73.468,26.368,63.977,26.368z"/> <path style="fill:#D9D9D9;" d="M73.468,92.059c0,1.165-0.944,2.109-2.109,2.109H56.594c-1.165,0-2.109-0.944-2.109-2.109l0,0 c0-1.165,0.944-2.109,2.109-2.109h14.764C72.524,89.95,73.468,90.894,73.468,92.059L73.468,92.059z"/> <path style="fill:#6A6D58;" d="M63.977,102.254c3.495,0,6.327-1.254,6.327-4.254H57.649C57.649,101,60.482,102.254,63.977,102.254 z"/> <path style="fill:#D9D9D9;" d="M73.468,95.807c0,0.874-0.708,1.582-1.582,1.582H56.067c-0.874,0-1.582-0.708-1.582-1.582l0,0 c0-0.874,0.708-1.582,1.582-1.582h15.819C72.76,94.225,73.468,94.933,73.468,95.807L73.468,95.807z"/> <path style="fill:#FF8E6E;" d="M64.075,89.785L62.086,89.6c0.005-0.104,0.46-10.505,1.062-18.787 c-0.025-0.431-0.055-0.851-0.088-1.261c-5.8-0.017-10.466-5.746-10.466-10.491c0-4.74,3.516-6.273,5.218-6.273 c1.206,0,4.353,2.406,6.144,9.588c0.091-0.612,0.18-1.094,0.268-1.448c1.074-4.297,5.523-9.195,8.353-9.195 c2.063,0,3.109,1.756,3.109,5.219c0,1.461-5.341,10.109-10.402,12.147c-0.045,0.563-0.089,1.141-0.132,1.729 C65.458,76.26,65.096,82.638,64.075,89.785z M57.728,54.797c-0.509,0.069-3.134,0.612-3.134,4.264c0,3.759,3.79,8.337,8.265,8.487 C61.752,58.41,58.616,55.212,57.728,54.797z M72.576,53.733c-1.441,0-5.401,3.633-6.413,7.68c-0.149,0.6-0.384,2.023-0.687,5.379 c3.9-2.237,7.872-8.654,8.209-9.91C73.678,54.792,73.305,53.733,72.576,53.733z"/> <path style="fill:#D9D9D9;" d="M74.468,88.501c0,1.165-1.044,2.109-2.331,2.109h-16.32c-1.288,0-2.331-0.944-2.331-2.109l0,0 c0-1.165,1.044-2.109,2.331-2.109h16.32C73.424,86.392,74.468,87.336,74.468,88.501L74.468,88.501z"/> <g style="opacity:0.1;"> <g> <path style="fill:#F9FAEF;" d="M74.522,87.459c2.109-25.31,12.275-24.218,12.275-38.982S73.216,26.369,63.216,26.369v23.664 v18.414V74h1.016c0.058,3-0.016,4.436-1.016,7.609v6.479v0.835c5,0,6.566-0.279,8.247-0.622 C72.516,88.087,73.711,87.865,74.522,87.459z"/> <path style="fill:#F9FAEF;" d="M63.216,92.702v2.307v1.153v2.306v3.164c5,0,7.088,0.368,7.088-1.632h1.582 c0.874,0,1.582-1.514,1.582-2.387c0-0.512-0.247-1.368-0.624-1.657c-0.381,0.378-0.906,0.398-1.485,0.398 c0.579,0,1.102-0.434,1.483-0.811l0.002-0.047c0.386-0.382,0.625-0.88,0.625-1.466c0-0.75-0.395-1.344-0.986-1.718 c-0.326,0.207-0.709,0.397-1.124,0.397c0.414,0,0.798-0.373,1.124-0.58c-0.326-0.206-0.709-0.578-1.124-0.578 c0.414,0,0.798,0.324,1.124,0.53c0.591-0.374,0.986-0.928,0.986-1.679c0-0.997-1.074-1.778-2.004-1.998 c-1.682,0.343-3.247,0.52-8.247,0.52v2.625v1.153H63.216z"/> </g> </g> </g></symbol><symbol id="network" viewBox="0 0 504 504"><title>network</title><circle style="fill:#324A5E;" cx="252" cy="252" r="252"/><g> <rect x="245" y="304" style="fill:#FFD05B;" width="14" height="59.5"/> <rect x="94.5" y="371.4" style="fill:#FFD05B;" width="315" height="14"/> </g><path style="fill:#F1543F;" d="M406.8,188.6H97.2c-1.5,0-2.7-1.2-2.7-2.7V97.2c0-1.5,1.2-2.7,2.7-2.7h309.5c1.5,0,2.7,1.2,2.7,2.7 v88.7C409.5,187.4,408.3,188.6,406.8,188.6z"/><path style="fill:#4CDBC4;" d="M406.8,311.6H97.2c-1.5,0-2.7-1.2-2.7-2.7v-88.7c0-1.5,1.2-2.7,2.7-2.7h309.5c1.5,0,2.7,1.2,2.7,2.7 v88.7C409.5,310.3,408.3,311.6,406.8,311.6z"/><rect x="221.2" y="347.4" style="fill:#F1543F;" width="61.7" height="62.1"/><rect x="119.2" y="118.6" style="fill:#FFFFFF;" width="45.9" height="45.9"/><rect x="186.8" y="118.6" style="fill:#324A5E;" width="45.9" height="45.9"/><rect x="365.9" y="118.6" style="fill:#FFFFFF;" width="18.9" height="45.9"/><rect x="331.9" y="118.6" style="fill:#54C0EB;" width="18.9" height="45.9"/><rect x="297.9" y="118.6" style="fill:#FFFFFF;" width="18.9" height="45.9"/><rect x="338.9" y="241.5" style="fill:#324A5E;" width="45.9" height="45.9"/><rect x="271.3" y="241.5" style="fill:#FFFFFF;" width="45.9" height="45.9"/><rect x="119.2" y="241.5" style="fill:#324A5E;" width="18.9" height="45.9"/><rect x="153.2" y="241.5" style="fill:#FFFFFF;" width="18.9" height="45.9"/><rect x="187.3" y="241.5" style="fill:#FF7058;" width="18.9" height="45.9"/><rect x="209.8" y="188.6" style="fill:#FFD05B;" width="84.5" height="28.8"/></symbol><symbol id="newborn" viewBox="0 0 473.931 473.931"><title>newborn</title><circle style="fill:#4ABC96;" cx="236.966" cy="236.966" r="236.966"/><path style="fill:#F3F2D9;" d="M356.418,146.363c0-73.84-53.488-109.177-119.467-109.177S117.484,72.519,117.484,146.363 c0,29.261,11.135,27.697,11.135,78.33c0,50.637-11.135,49.058-11.135,78.323c0,73.847,45.62,133.708,119.467,133.708 s119.467-59.861,119.467-133.708c0-29.261-11.135-41.926-11.135-78.323S356.418,175.623,356.418,146.363z"/><path style="fill:#E7E4B9;" d="M238.485,220.416c-44.246,0-80.246-35.999-80.246-80.257c0-44.25,35.999-80.242,80.246-80.242 c44.25,0,80.25,35.992,80.25,80.242C318.734,184.416,282.735,220.416,238.485,220.416z M238.485,64.658 c-41.631,0-75.501,33.867-75.501,75.501c0,41.638,33.87,75.516,75.501,75.516c41.635,0,75.505-33.878,75.505-75.516 C313.986,98.524,280.119,64.658,238.485,64.658z"/><polygon style="fill:#D7AD8C;" points="201.352,205.7 271.498,206.758 237.74,236.824 "/><g> <path style="fill:#E7E4B9;" d="M237.74,242.361c-0.434,0-0.876-0.12-1.272-0.374c-1.108-0.703-1.433-2.17-0.73-3.282 c7.54-11.839,36.557-33.223,37.788-34.129c1.051-0.775,2.541-0.546,3.315,0.513c0.775,1.051,0.55,2.537-0.509,3.319 c-0.292,0.213-29.522,21.755-36.587,32.853C239.293,241.972,238.526,242.361,237.74,242.361z"/> <path style="fill:#E7E4B9;" d="M304.991,354.176c-1.31,0-2.372-1.059-2.372-2.376c0-66.85-111.044-148.9-112.167-149.723 c-1.059-0.775-1.291-2.26-0.513-3.319c0.771-1.055,2.26-1.287,3.319-0.513c4.655,3.405,114.105,84.313,114.105,153.551 C307.367,353.117,306.304,354.176,304.991,354.176z"/> </g><path style="fill:#E9C29C;" d="M314.779,140.159c0,42.155-34.159,76.306-76.298,76.306c-42.143,0-76.294-34.151-76.294-76.306 c0-42.136,34.151-76.298,76.294-76.298C280.621,63.861,314.779,98.023,314.779,140.159z"/><ellipse style="fill:#343433;" cx="269.594" cy="135.152" rx="14.454" ry="15.259"/><path style="fill:#FFFFFF;" d="M279.861,129.36c0,3.364-2.574,6.107-5.777,6.107c-3.18,0-5.766-2.739-5.766-6.107 c0-3.379,2.586-6.107,5.766-6.107C277.287,123.254,279.861,125.981,279.861,129.36z"/><ellipse style="fill:#343433;" cx="206.957" cy="135.152" rx="14.451" ry="15.259"/><ellipse style="fill:#FFFFFF;" cx="211.297" cy="129.36" rx="5.777" ry="6.107"/><path style="fill:#A46434;" d="M237.759,94.03c-1.31,0-2.372-1.059-2.372-2.376V87.4c-1.268-0.778-2.499-1.747-3.693-2.907 c-6.305-6.151-1.994-13.792,3.457-23.465c0.359-0.823,0.071-4.557-0.617-7.794c-0.273-1.283,0.546-2.544,1.826-2.814 c1.28-0.269,2.544,0.543,2.818,1.826c0.528,2.462,1.59,8.494,0.109,11.113c-5.381,9.545-7.813,14.282-4.281,17.728 c0.127,0.12,0.254,0.239,0.382,0.363v-2.346c0-4.056,2.369-7.951,5.897-9.684c2.058-1.018,6.275-2.125,11.379,1.804 c2.803,2.148,4.138,5.583,3.592,9.194c-0.58,3.772-3.102,6.915-6.582,8.187c-3.338,1.224-6.526,1.482-9.538,0.778v2.264 C240.139,92.972,239.072,94.03,237.759,94.03z M240.139,84.478c2.44,0.861,5.01,0.73,7.903-0.322 c1.852-0.685,3.203-2.391,3.517-4.453c0.138-0.894,0.239-3.154-1.789-4.715c-2.312-1.781-4.52-2.226-6.391-1.31 c-1.882,0.924-3.244,3.21-3.244,5.426v5.373H240.139z"/><circle style="fill:#49A0AE;" cx="239.323" cy="175.638" r="17.403"/><circle style="fill:#3D929A;" cx="239.323" cy="175.638" r="9.497"/><g> <circle style="fill:#357180;" cx="239.323" cy="175.638" r="5.803"/> <path style="fill:#357180;" d="M239.132,200.955c-5.452,0-8.711-1.078-10.267-3.39c-2.23-3.315-0.355-7.903,2.013-13.721 c1.171-2.862,2.492-6.099,3.356-9.399c0.224-0.849,1.104-1.347,1.938-1.126c0.846,0.225,1.347,1.085,1.123,1.934 c-0.917,3.502-2.279,6.836-3.484,9.785c-1.856,4.55-3.611,8.842-2.324,10.758c0.891,1.325,3.465,1.994,7.644,1.994 c4.314,0,6.993-0.745,7.959-2.223c1.534-2.35-0.696-7.446-3.057-12.849c-1.033-2.354-2.103-4.793-3.031-7.33 c-0.296-0.827,0.127-1.732,0.95-2.032c0.816-0.299,1.729,0.127,2.028,0.947c0.891,2.447,1.938,4.834,2.949,7.143 c2.833,6.477,5.28,12.075,2.806,15.85C248.105,199.791,244.737,200.955,239.132,200.955z"/> </g><g> <circle style="fill:#E9C29C;" cx="310.94" cy="138.056" r="13.055"/> <circle style="fill:#E9C29C;" cx="162.205" cy="138.056" r="13.055"/> </g></symbol><symbol id="puzzle" viewBox="0 0 508 508"><title>puzzle</title><circle style="fill:#90DFAA;" cx="254" cy="254" r="254"/><path style="fill:#324A5E;" d="M307.6,130.8c-4.8,0-9.2,1.6-12.4,4.8V92c0-5.6-4.8-10.4-10.4-10.4H242c2.8,3.2,4.8,7.6,4.8,12.4 c0,10.4-8.4,19.2-19.2,19.2c-10.4,0-19.2-8.4-19.2-19.2c0-4.8,1.6-9.2,4.8-12.4h-42.8c-5.6,0-10.4,4.8-10.4,10.4v43.6 c3.2-2.8,7.6-4.8,12.4-4.8c10.4,0,19.2,8.4,19.2,19.2c0,10.4-8.4,19.2-19.2,19.2c-4.8,0-9.2-1.6-12.4-4.8V206 c0,5.6,4.8,10.4,10.4,10.4h42.8c-2.8,3.2-4.8,7.6-4.8,12.4c0,10.4,8.4,19.2,19.2,19.2c10.4,0,19.2-8.4,19.2-19.2 c0-4.8-1.6-9.2-4.8-12.4h42.8c5.6,0,10.4-4.8,10.4-10.4v-41.6c3.2,2.8,7.6,4.8,12.4,4.8c10.4,0,19.2-8.4,19.2-19.2 C326.8,139.6,318,130.8,307.6,130.8z"/><path style="fill:#FFFFFF;" d="M434,298.8c-3.6-3.2-8-5.2-12.4-5.2L452,262c4-4,4-10.8-0.4-14.4L420.8,218c-0.4,4.4-2,8.8-5.2,12 c-7.2,7.6-19.2,7.6-26.8,0.4c-7.6-7.2-7.6-19.2-0.4-26.8c3.2-3.6,7.6-5.2,12-5.6L370,167.6c-4-4-10.8-4-14.4,0.4l-30.4,31.6 c4.4,0.4,8.8,2,12.4,5.2c7.6,7.2,7.6,19.2,0.4,26.8s-19.2,7.6-26.8,0.4c-3.6-3.2-5.2-7.6-5.6-12l-30,30c-4,4-4,10.8,0.4,14.4 l30.8,29.6c-4.4,0.4-8.8,2.4-12,5.6c-7.2,7.6-7.2,19.6,0.4,26.8c7.6,7.2,19.6,7.2,26.8-0.4c3.2-3.6,5.2-7.6,5.2-12.4l30.8,29.6 c4,4,10.8,4,14.4-0.4l29.2-30c0.4,4.4,2.4,8.8,5.6,12c7.6,7.2,19.6,7.2,26.8-0.4C441.6,318,441.6,306,434,298.8z"/><path style="fill:#FF7058;" d="M244,364.4c-3.6-3.2-8-5.2-12.4-5.2l30.4-31.6c4-4,4-10.8-0.4-14.4l-30.8-29.6c-0.4,4.4-2,8.8-5.2,12 c-7.2,7.6-19.2,7.6-26.8,0.4s-7.6-19.2-0.4-26.8c3.2-3.6,7.6-5.2,12-5.6L179.6,234c-4-4-10.8-4-14.4,0.4L134.8,266 c4.4,0.4,8.8,2,12.4,5.2c7.6,7.2,7.6,19.2,0.4,26.8c-7.2,7.6-19.2,7.6-26.8,0.4c-3.6-3.2-5.2-7.6-5.6-12l-29.2,30 c-4,4-4,10.8,0.4,14.4l30.8,29.6c-4.4,0.4-8.8,2.4-12,5.6c-7.2,7.6-7.2,19.6,0.4,26.8c7.6,7.2,19.6,7.2,26.8-0.4 c3.2-3.6,5.2-7.6,5.2-12.4l30.8,29.6c4,4,10.8,4,14.4-0.4l29.2-30c0.4,4.4,2.4,8.8,5.6,12c7.6,7.2,19.6,7.2,26.8-0.4 C251.6,384,251.6,371.6,244,364.4z"/></symbol><symbol id="seo" viewBox="0 0 508 508"><title>seo</title><circle style="fill:#FD8469;" cx="254" cy="254" r="254"/><g> <path style="fill:#324A5E;" d="M260.4,132.8v46.4c-2-0.4-4.4-0.4-6.4-0.4s-4.4,0-6.8,0.4v-46.4c2,0.4,4.4,0.4,6.8,0.4 C256.4,133.6,258.4,133.2,260.4,132.8z"/> <path style="fill:#324A5E;" d="M206,196.4c-3.2,2.8-6.4,6-9.2,9.2L164,172.8c1.6-1.2,3.6-2.8,5.2-4.4c1.6-1.6,3.2-3.2,4.4-5.2 L206,196.4z"/> <path style="fill:#324A5E;" d="M344.4,173.2L311.6,206c-2.8-3.2-6-6.4-9.2-9.2l32.8-32.8c1.2,1.6,2.8,3.6,4.4,5.2 C340.8,170.4,342.4,171.6,344.4,173.2z"/> <path style="fill:#324A5E;" d="M179.2,254c0,2.4,0,4.4,0.4,6.8h-46.4c0.4-2,0.4-4.4,0.4-6.4c0-2.4,0-4.4-0.4-6.8h46.4 C179.2,249.6,179.2,251.6,179.2,254z"/> <path style="fill:#324A5E;" d="M344.4,334.8c-1.6,1.2-3.6,2.8-5.2,4.4s-3.2,3.2-4.4,5.2L302,311.6c3.6-2.8,6.4-6,9.2-9.2 L344.4,334.8z"/> <path style="fill:#324A5E;" d="M206,311.6l-32.8,32.8c-1.2-1.6-2.8-3.6-4.4-5.2c-1.6-1.6-3.2-3.2-5.2-4.4l32.8-32.8 C199.2,305.6,202.4,308.8,206,311.6z"/> <path style="fill:#324A5E;" d="M374.4,254c0,2.4,0,4.4,0.4,6.4h-46.4c0.4-2,0.4-4.4,0.4-6.8c0-2.4,0-4.4-0.4-6.4h46.4 C374.4,249.6,374.4,251.6,374.4,254z"/> <path style="fill:#324A5E;" d="M260.8,375.2c-2-0.4-4.4-0.4-6.8-0.4c-2.4,0-4.4,0-6.8,0.4v-46.4c2,0.4,4.4,0.4,6.8,0.4 s4.4,0,6.4-0.4L260.8,375.2z"/> </g><circle style="fill:#FFFFFF;" cx="254" cy="254" r="74.8"/><circle style="fill:#84DBFF;" cx="254" cy="254" r="46"/><g> <circle style="fill:#FFFFFF;" cx="254" cy="94.4" r="38.8"/> <circle style="fill:#FFFFFF;" cx="254" cy="413.6" r="38.8"/> <circle style="fill:#FFFFFF;" cx="413.2" cy="254" r="38.8"/> <circle style="fill:#FFFFFF;" cx="94.8" cy="254" r="38.8"/> <circle style="fill:#FFFFFF;" cx="366.8" cy="141.2" r="38.8"/> <circle style="fill:#FFFFFF;" cx="141.2" cy="366.8" r="38.8"/> <circle style="fill:#FFFFFF;" cx="366.8" cy="366.8" r="38.8"/> <circle style="fill:#FFFFFF;" cx="141.6" cy="141.6" r="38.8"/> </g></symbol><symbol id="technology" viewBox="0 0 512 512"><title>technology</title><path style="fill:#E2574C;" d="M256,0c141.384,0,256,114.616,256,256S397.384,512,256,512S0,397.384,0,256S114.616,0,256,0z"/><path style="fill:#DADFE1;" d="M435.2,368.64H76.8l0.005,70.118C122.988,484.045,186.214,512,256,512s133.012-27.955,179.195-73.242 L435.2,368.64z M435.2,281.6H76.8c0,0,0.01,141.051,0.01,98.391c0,19.18,32.594,34.724,72.801,34.724v0.005h201.59v-0.005 c46.397,0,83.988-17.935,83.988-40.064C435.19,422.656,435.2,281.6,435.2,281.6L435.2,281.6z M435.2,215.04H76.8 c0,0,0.01,120.571,0.01,77.911c0,19.18,31.14,34.724,69.545,34.724v0.005h201.088v-0.005c48.476,0,87.752-17.935,87.752-40.064 L435.2,215.04z"/><g> <path style="fill:#E1E5E7;" d="M384,477.665c18.683-10.813,35.886-23.895,51.2-38.912V209.92H384V477.665z M76.8,438.753 c15.314,15.017,32.512,28.093,51.2,38.912V220.16H76.8V438.753z"/> </g><path style="fill:#F2F1EF;" d="M367.043,171.505C362.132,147.128,319.58,128,267.203,128c-40.535,0-75.238,10.358-91.238,26.824 c-4.813-0.732-9.83-1.234-15.145-1.234c-27.837,0-50.401,11.889-50.401,25.16c0,2.642,0.625,6.733,2.273,9.103 c-21.647,6.021-35.876,15.473-35.876,28.288c0,19.18,32.594,34.724,72.801,34.724v0.015h201.59v-0.005 c46.397,0,83.988-17.935,83.988-40.069C435.19,191.268,405.847,175.043,367.043,171.505L367.043,171.505z"/><path style="fill:#9ECEC7;" d="M273.92,276.48c-4.239,0-7.68,3.441-7.68,7.68c0,4.239,3.441,7.68,7.68,7.68 c4.239,0,7.68-3.441,7.68-7.68C281.6,279.921,278.159,276.48,273.92,276.48z M273.92,363.52c-4.239,0-7.68,3.441-7.68,7.68 s3.441,7.68,7.68,7.68c4.239,0,7.68-3.441,7.68-7.68S278.159,363.52,273.92,363.52z M335.36,450.56c-4.239,0-7.68,3.441-7.68,7.68 s3.441,7.68,7.68,7.68s7.68-3.441,7.68-7.68S339.599,450.56,335.36,450.56z M273.92,450.56c-4.239,0-7.68,3.441-7.68,7.68 s3.441,7.68,7.68,7.68c4.239,0,7.68-3.441,7.68-7.68S278.159,450.56,273.92,450.56z"/><path style="fill:#3DB39E;" d="M304.64,276.48c-4.239,0-7.68,3.441-7.68,7.68c0,4.239,3.441,7.68,7.68,7.68s7.68-3.441,7.68-7.68 C312.32,279.921,308.879,276.48,304.64,276.48z M335.36,291.84c4.239,0,7.68-3.441,7.68-7.68c0-4.239-3.441-7.68-7.68-7.68 s-7.68,3.441-7.68,7.68C327.68,288.399,331.121,291.84,335.36,291.84z M304.64,363.52c-4.239,0-7.68,3.441-7.68,7.68 s3.441,7.68,7.68,7.68s7.68-3.441,7.68-7.68S308.879,363.52,304.64,363.52z M335.36,363.52c-4.239,0-7.68,3.441-7.68,7.68 s3.441,7.68,7.68,7.68s7.68-3.441,7.68-7.68S339.599,363.52,335.36,363.52z M304.64,450.56c-4.239,0-7.68,3.441-7.68,7.68 s3.441,7.68,7.68,7.68s7.68-3.441,7.68-7.68S308.879,450.56,304.64,450.56z"/><path style="fill:#C4C8CA;" d="M230.4,271.36h-76.8c-2.826,0-5.12,2.289-5.12,5.12v5.12c0,2.831,2.294,5.12,5.12,5.12h76.8 c2.826,0,5.12-2.289,5.12-5.12v-5.12C235.52,273.649,233.226,271.36,230.4,271.36z M230.4,291.84h-76.8 c-2.826,0-5.12,2.289-5.12,5.12v5.12c0,2.831,2.294,5.12,5.12,5.12h76.8c2.826,0,5.12-2.289,5.12-5.12v-5.12 C235.52,294.129,233.226,291.84,230.4,291.84z M230.4,358.4h-76.8c-2.826,0-5.12,2.289-5.12,5.12v5.12c0,2.831,2.294,5.12,5.12,5.12 h76.8c2.826,0,5.12-2.289,5.12-5.12v-5.12C235.52,360.689,233.226,358.4,230.4,358.4z M230.4,378.88h-76.8 c-2.826,0-5.12,2.289-5.12,5.12v5.12c0,2.831,2.294,5.12,5.12,5.12h76.8c2.826,0,5.12-2.289,5.12-5.12V384 C235.52,381.169,233.226,378.88,230.4,378.88z M230.4,445.44h-76.8c-2.826,0-5.12,2.289-5.12,5.12v5.12 c0,2.831,2.294,5.12,5.12,5.12h76.8c2.826,0,5.12-2.289,5.12-5.12v-5.12C235.52,447.729,233.226,445.44,230.4,445.44z M230.4,465.92 h-76.8c-2.826,0-5.12,2.289-5.12,5.12v5.12c0,2.831,2.294,5.12,5.12,5.12h76.8c2.826,0,5.12-2.289,5.12-5.12v-5.12 C235.52,468.209,233.226,465.92,230.4,465.92z"/><path style="fill:#CECDCB;" d="M256,163.84c-28.278,0-51.2,10.117-51.2,25.6s22.922,25.6,51.2,25.6s51.2-11.459,51.2-25.6 C307.2,175.304,284.278,163.84,256,163.84z M281.17,183.526l-29.266,16.02c-1.219,0.666-2.862,0.901-4.449,0.799 c-1.797,0.256-3.779,0.046-5.181-0.727l-11.525-6.308c-2.12-1.157-2.12-3.031,0-4.188c2.115-1.157,5.545-1.157,7.66,0l8.637,4.731 l26.491-14.5c2.109-1.157,5.524-1.157,7.634,0C283.279,180.5,283.279,182.374,281.17,183.526z"/><path style="fill:#AEB2B4;" d="M435.2,368.64l-0.01,15.974v-9.964c0,22.129-37.591,40.064-83.988,40.064v0.005h-201.59v-0.005 c-40.207,0-72.801-15.544-72.801-34.724v8.038V368.64H76.8v30.008c12.646,14.3,39.798,23.747,72.812,23.747l201.59,0.005 c38.072-0.005,69.98-11.525,83.999-28.37V368.64z M435.2,281.6l-0.01,17.306v-11.295c0,22.129-39.276,40.064-87.752,40.064v0.005 H146.35v-0.005c-38.405,0-69.545-15.544-69.545-34.724v9.134V281.6H76.8v30.029c12.375,14.157,38.538,23.726,69.55,23.726 l201.088,0.005c40.433-0.005,73.457-11.351,87.762-28.349V281.6z"/><g> <path style="fill:#BFC2C4;" d="M435.19,298.906v-11.295c0,16.164-21.002,30.054-51.19,36.388v7.962 c23.286-4.567,41.528-13.46,51.2-24.95V281.6h-0.005L435.19,298.906L435.19,298.906z M128,334.177v-7.762 c-29.486-4.024-51.19-17.464-51.19-33.464v8.74V281.6H76.8v30.029C86.641,322.883,105.216,331.218,128,334.177z"/> </g><g> <path style="fill:#BFC2C4;" d="M435.19,383.468v-8.817c0,16.579-21.1,30.802-51.19,36.895v7.793 c23.076-4.485,41.462-13.609,51.2-25.308v-25.39h-0.005L435.19,383.468L435.19,383.468z M128,420.946v-7.788 c-29.655-4.388-51.19-17.582-51.19-33.172v7.68v-19.031H76.8v30.008C86.554,409.682,104.955,417.797,128,420.946z"/> </g></symbol><symbol id="workspace" viewBox="0 0 512 512"><title>workspace</title><circle style="fill:#21D8DE;" cx="256" cy="256" r="256"/><rect x="130.213" y="171.586" style="fill:#FFFFFF;" width="238.592" height="168.696"/><rect x="274.961" y="280.312" style="fill:#FF6D3B;" width="41.221" height="29.894"/><g> <rect x="280.114" y="286.059" style="fill:#E64717;" width="30.908" height="3.439"/> <rect x="280.114" y="301.023" style="fill:#E64717;" width="18.29" height="3.439"/> </g><rect x="182.834" y="280.312" style="fill:#16C6CC;" width="41.224" height="14.947"/><rect x="187.973" y="286.059" style="fill:#FFFFFF;" width="30.915" height="3.439"/><rect x="182.834" y="208.268" style="fill:#16C6CC;" width="41.224" height="44.851"/><g> <rect x="203.446" y="213.999" style="fill:#FFFFFF;" width="15.459" height="3.439"/> <rect x="187.973" y="213.999" style="fill:#FFFFFF;" width="10.795" height="3.439"/> <rect x="187.973" y="228.947" style="fill:#FFFFFF;" width="30.915" height="3.439"/> <rect x="187.973" y="243.91" style="fill:#FFFFFF;" width="21.851" height="3.432"/> </g><rect x="274.961" y="208.268" style="fill:#242D3C;" width="41.221" height="44.851"/><g> <rect x="280.114" y="213.999" style="fill:#3E4959;" width="30.908" height="3.439"/> <rect x="280.114" y="228.947" style="fill:#3E4959;" width="18.845" height="3.439"/> <rect x="302.972" y="228.947" style="fill:#3E4959;" width="8.07" height="3.439"/> <rect x="280.114" y="243.91" style="fill:#3E4959;" width="13.732" height="3.432"/> </g><g> <rect x="224.045" y="228.947" style="fill:#D9D8D7;" width="41.01" height="3.439"/> <rect x="293.855" y="253.093" style="fill:#D9D8D7;" width="3.439" height="17.296"/> <rect x="201.728" y="263.003" style="fill:#D9D8D7;" width="3.429" height="17.296"/> <polygon style="fill:#D9D8D7;" points="197.711,263.013 203.432,253.103 209.157,263.013 "/> <polygon style="fill:#D9D8D7;" points="265.054,224.956 274.967,230.677 265.054,236.399 "/> <polygon style="fill:#D9D8D7;" points="301.304,270.399 295.579,280.308 289.858,270.399 "/> </g><circle style="fill:#FFD55C;" cx="130.213" cy="171.728" r="47.629"/><path style="fill:#FFC640;" d="M130.207,209.259c-10.567,0-20.715-4.529-27.836-12.414c-0.747-0.832-0.687-2.111,0.152-2.857 c0.823-0.743,2.101-0.684,2.847,0.149c6.359,7.046,15.416,11.082,24.837,11.082c18.465,0,33.495-15.02,33.495-33.491 c0-1.11,0.902-2.025,2.015-2.025c1.116,0,2.018,0.915,2.018,2.025C167.734,192.42,150.898,209.259,130.207,209.259z"/><path style="fill:#FFF785;" d="M94.7,173.75c-1.113,0-2.018-0.902-2.018-2.018c0-20.691,16.83-37.528,37.521-37.528 c1.117,0,2.022,0.902,2.022,2.018c0,1.116-0.905,2.025-2.022,2.025c-18.465,0-33.485,15.02-33.485,33.485 C96.718,172.845,95.813,173.75,94.7,173.75z"/><rect x="108.775" y="214.128" style="fill:#FFC640;" width="42.856" height="15.71"/><rect x="106.397" y="229.838" style="fill:#3E4959;" width="47.609" height="29.716"/><g> <rect x="103.936" y="233.142" style="fill:#242D3C;" width="52.535" height="3.297"/> <rect x="103.936" y="239.748" style="fill:#242D3C;" width="52.535" height="3.303"/> <rect x="103.936" y="246.355" style="fill:#242D3C;" width="52.535" height="3.303"/> <rect x="103.936" y="252.961" style="fill:#242D3C;" width="52.535" height="3.303"/> </g><rect x="116.802" y="259.567" style="fill:#CCCBCA;" width="26.816" height="11.878"/><g> <rect x="122.163" y="175.533" style="fill:#FFFFFF;" width="2.022" height="54.308"/> <rect x="136.225" y="175.533" style="fill:#FFFFFF;" width="2.018" height="54.308"/> <rect x="113.036" y="173.518" style="fill:#FFFFFF;" width="34.347" height="2.018"/> </g><path style="fill:#E6E5E5;" d="M429.419,340.272c0,1.853-0.704,3.696-2.114,5.103c-1.41,1.414-3.254,2.117-5.1,2.117h-18.769 v-14.425h18.769c1.846,0,3.69,0.697,5.1,2.111C428.716,336.582,429.419,338.432,429.419,340.272L429.419,340.272z"/><circle style="fill:#F2F2F2;" cx="368.805" cy="340.265" r="47.633"/><path style="fill:#FF6D3B;" d="M404.886,340.272c0,19.935-16.159,36.091-36.091,36.091c-19.928,0-36.084-16.156-36.084-36.091 c0-19.922,16.156-36.084,36.084-36.084C388.73,304.187,404.886,320.347,404.886,340.272z"/><path style="fill:#E64717;" d="M340.444,348.008c0-19.922,16.153-36.091,36.088-36.091c7.987,0,15.35,2.633,21.329,7.026 c-6.567-8.929-17.127-14.756-29.065-14.756c-19.928,0-36.084,16.163-36.084,36.084c0,11.948,5.827,22.505,14.762,29.065 C343.076,363.361,340.444,355.999,340.444,348.008z"/><polygon style="fill:#FFFFFF;" points="120.052,387.911 110.242,382.993 110.242,376.683 120.052,371.781 "/><rect x="120.039" y="371.778" style="fill:#242D3C;" width="178.44" height="16.13"/><rect x="120.039" y="371.778" style="fill:#3E4959;" width="178.44" height="8.063"/><polygon style="fill:#242D3C;" points="110.242,382.993 103.936,379.851 110.242,376.683 "/><rect x="279.288" y="371.778" style="fill:#FFFFFF;" width="5.698" height="16.13"/></symbol></svg>